/* XPM */
static char * xtensa_33_xpm[] = {
"53 13 324 2",
"  	c None",
". 	c #FFFFFF",
"+ 	c #F6F6FA",
"@ 	c #35448C",
"# 	c #3A4B90",
"$ 	c #3A4C90",
"% 	c #F1F1F7",
"& 	c #E5E6F1",
"* 	c #F8F7FB",
"= 	c #F8F8FB",
"- 	c #E6E6F1",
"; 	c #F5F4F9",
"> 	c #FDFDFE",
", 	c #EAEAF3",
"' 	c #E8E9F3",
") 	c #FCFCFD",
"! 	c #FFFFFE",
"~ 	c #FAF9FC",
"{ 	c #E7E7F2",
"] 	c #EAEAF4",
"^ 	c #B5D4BE",
"/ 	c #2E8E5D",
"( 	c #389565",
"_ 	c #EEF5EF",
": 	c #F4F9F5",
"< 	c #479B6F",
"[ 	c #308F5E",
"} 	c #B1CFBD",
"| 	c #636DA6",
"1 	c #1F3580",
"2 	c #1F3681",
"3 	c #445094",
"4 	c #959BC3",
"5 	c #FFFEFF",
"6 	c #C3C6DE",
"7 	c #4C5A99",
"8 	c #1D337F",
"9 	c #1C317D",
"0 	c #243883",
"a 	c #767FB1",
"b 	c #F0F1F7",
"c 	c #B6B9D5",
"d 	c #444E93",
"e 	c #BBBCD8",
"f 	c #9098C1",
"g 	c #283C86",
"h 	c #1B317D",
"i 	c #203681",
"j 	c #6974AA",
"k 	c #ECEDF5",
"l 	c #9CA2C6",
"m 	c #34458B",
"n 	c #1C317E",
"o 	c #1B317E",
"p 	c #2E4088",
"q 	c #9098C0",
"r 	c #FAFBFD",
"s 	c #E7E8F2",
"t 	c #6B75AA",
"u 	c #253984",
"v 	c #1D307D",
"w 	c #30428A",
"x 	c #8E95BF",
"y 	c #FBFAFC",
"z 	c #FEFEFE",
"A 	c #449B6F",
"B 	c #007943",
"C 	c #66AD87",
"D 	c #FEFFFE",
"E 	c #77B796",
"F 	c #4DA177",
"G 	c #BEC1DA",
"H 	c #5B6AA2",
"I 	c #213782",
"J 	c #243983",
"K 	c #5C6BA4",
"L 	c #A4AACC",
"M 	c #B5B9D5",
"N 	c #20337F",
"O 	c #707AAD",
"P 	c #848AB8",
"Q 	c #4A5899",
"R 	c #1A317D",
"S 	c #5B67A1",
"T 	c #F9F9FC",
"U 	c #A7ACCD",
"V 	c #1A307D",
"W 	c #435195",
"X 	c #263983",
"Y 	c #7079AD",
"Z 	c #8389B8",
"` 	c #425293",
" .	c #18327D",
"..	c #606BA4",
"+.	c #FCFCFE",
"@.	c #979DC3",
"#.	c #8C92BD",
"$.	c #888EBB",
"%.	c #445495",
"&.	c #8E95BE",
"*.	c #485696",
"=.	c #1C337F",
"-.	c #6F79AD",
";.	c #9EA6C9",
">.	c #9399C1",
",.	c #435394",
"'.	c #19317D",
").	c #868DB9",
"!.	c #E3EFE7",
"~.	c #0F804C",
"{.	c #027A44",
"].	c #BDDBC9",
"^.	c #CBE3D5",
"/.	c #067C46",
"(.	c #188551",
"_.	c #E5F1E8",
":.	c #F0F0F6",
"<.	c #34468B",
"[.	c #293C85",
"}.	c #D3D4E5",
"|.	c #727CAF",
"1.	c #B6BAD5",
"2.	c #263A84",
"3.	c #CDCFE2",
"4.	c #36488D",
"5.	c #253983",
"6.	c #E3E3EF",
"7.	c #3B4C90",
"8.	c #3D4E91",
"9.	c #F6F7FA",
"0.	c #F7F7FA",
"a.	c #3F4C90",
"b.	c #37438A",
"c.	c #C6C9DF",
"d.	c #1D327E",
"e.	c #7B83B3",
"f.	c #F0F0F7",
"g.	c #3B498F",
"h.	c #FEFEFF",
"i.	c #A0CCB3",
"j.	c #248B5A",
"k.	c #319163",
"l.	c #ACD2BC",
"m.	c #35448B",
"n.	c #B6BBD6",
"o.	c #888FBB",
"p.	c #DDDEEC",
"q.	c #223681",
"r.	c #6A75AB",
"s.	c #6771A8",
"t.	c #1B327E",
"u.	c #CCCFE3",
"v.	c #31448A",
"w.	c #34478C",
"x.	c #E4E5F0",
"y.	c #DADCEA",
"z.	c #CDCFE3",
"A.	c #DBDCEA",
"B.	c #9BA2C7",
"C.	c #DDDFEC",
"D.	c #FAFAFC",
"E.	c #2B3E87",
"F.	c #36458C",
"G.	c #50A279",
"H.	c #5FAA84",
"I.	c #868EBB",
"J.	c #7A87B5",
"K.	c #A7B0CF",
"L.	c #A0A8CB",
"M.	c #2A3E87",
"N.	c #A5A9CB",
"O.	c #D7DAE9",
"P.	c #707AAE",
"Q.	c #5764A0",
"R.	c #9299C1",
"S.	c #CDD0E3",
"T.	c #FEFFFF",
"U.	c #DBDCEB",
"V.	c #B1B7D3",
"W.	c #9197C0",
"X.	c #7780B1",
"Y.	c #4B5999",
"Z.	c #1A327D",
"`.	c #8FC4A7",
" +	c #017943",
".+	c #A1CDB4",
"++	c #747BAF",
"@+	c #1C327E",
"#+	c #1D327F",
"$+	c #1B337F",
"%+	c #35488E",
"&+	c #9DA1C7",
"*+	c #A0A6C8",
"=+	c #D7DAE8",
"-+	c #F7F7FB",
";+	c #9198C0",
">+	c #3E4D91",
",+	c #1B307D",
"'+	c #33458B",
")+	c #B1B4D2",
"!+	c #F2F2F8",
"~+	c #5D69A3",
"{+	c #1D2F7D",
"]+	c #223783",
"^+	c #3A498F",
"/+	c #6D78AD",
"(+	c #243A83",
"_+	c #DDECE2",
":+	c #0E7F4B",
"<+	c #097D47",
"[+	c #017B43",
"}+	c #168450",
"|+	c #E4F0E8",
"1+	c #7C83B3",
"2+	c #AEB2D1",
"3+	c #F3F3F8",
"4+	c #F3F2F8",
"5+	c #F4F4F9",
"6+	c #A6ABCC",
"7+	c #A0A6C9",
"8+	c #B4B8D5",
"9+	c #6C76AB",
"0+	c #1F3581",
"a+	c #1F337F",
"b+	c #D5D6E7",
"c+	c #7F88B6",
"d+	c #6A75AA",
"e+	c #D7D9E9",
"f+	c #2C3F88",
"g+	c #FCFDFC",
"h+	c #3C986A",
"i+	c #90C4A8",
"j+	c #67AE8A",
"k+	c #FEFEFD",
"l+	c #8C93BE",
"m+	c #7E86B5",
"n+	c #1A307C",
"o+	c #B0B6D3",
"p+	c #6471A8",
"q+	c #8990BC",
"r+	c #B1B6D3",
"s+	c #424F92",
"t+	c #233883",
"u+	c #F1F2F7",
"v+	c #8CC2A5",
"w+	c #369567",
"x+	c #FBFCFA",
"y+	c #F0F6F1",
"z+	c #1F8958",
"A+	c #9ACAB0",
"B+	c #36488E",
"C+	c #E7E8F1",
"D+	c #314289",
"E+	c #DFE0ED",
"F+	c #7F88B7",
"G+	c #B4B9D5",
"H+	c #505D9B",
"I+	c #F7F6FA",
"J+	c #6D78AC",
"K+	c #C9CBE1",
"L+	c #445295",
"M+	c #FBFBFD",
"N+	c #7F86B5",
"O+	c #D6EADE",
"P+	c #0A7D47",
"Q+	c #027C45",
"R+	c #CEE4D7",
"S+	c #B5D6C3",
"T+	c #017A44",
"U+	c #13824E",
"V+	c #DDEDE3",
"W+	c #4C5998",
"X+	c #1B327D",
"Y+	c #4D5B9A",
"Z+	c #A5AACC",
"`+	c #273B84",
" @	c #8087B6",
".@	c #485798",
"+@	c #58639F",
"@@	c #1B327F",
"#@	c #D4D8E7",
"$@	c #6872A9",
"%@	c #3A4C8F",
"&@	c #7982B3",
"*@	c #4C5A9A",
"=@	c #9298C0",
"-@	c #3C4D90",
";@	c #8A91BD",
">@	c #858BB9",
",@	c #3F4F92",
"'@	c #37478C",
")@	c #38498D",
"!@	c #868CB9",
"~@	c #5FA67C",
"{@	c #2A8C5A",
"]@	c #84BB9C",
"^@	c #70B18C",
"/@	c #2A8C5B",
"(@	c #71B08A",
"_@	c #4A5698",
":@	c #BCBFD8",
"<@	c #1E3581",
"[@	c #32428A",
"}@	c #848CB9",
"|@	c #BCBFD9",
"1@	c #535E9D",
"2@	c #B7BBD6",
"3@	c #949AC2",
"4@	c #53609E",
"5@	c #E0E2ED",
"6@	c #8C95BE",
"7@	c #1D3580",
"8@	c #1B337E",
"9@	c #34458C",
"0@	c #8890BC",
"a@	c #F5F5F9",
"b@	c #8B93BD",
"c@	c #2D3F88",
"d@	c #1A327E",
"e@	c #2B3D87",
"f@	c #727DB0",
"g@	c #E9EAF2",
"h@	c #B2B6D3",
"i@	c #33428B",
". . . . . . . . . . + @ # . . . . . . . . . . . . . . . . . . . . . . . . . . . . . . . . . . . . . . . . ",
". . . . . . . . . . + @ $ . . . . . % & * . . . . . . . = - ; . . . . . > , ' ) . . . ! . . ~ { ] > . . . ",
"^ / ( _ . . : < [ } | 1 2 3 4 5 6 7 8 9 0 a b . c d e f g h i j k . ) l m n o p q r . . s t u v n w x y . ",
"z A B C . D E B F G H I J K L M N 0 O P Q R S T U V W X Y Z `  ...+.@.n 7 #.$.%.V &.. T *.=.-.;.>.,.'.).. ",
". !.~.{.].^./.(._.. + @ # . :.<.[.}.. . ) |.n 1.U '.2.3.. . b 4.5.6.7.8.9.. . 0.a.b.+ c.d.e.z . . f.2.g.h.",
". . i.B j.k.{.l.. . + m.# . n.h o.. . . . p.q.r.U R O . . . . s.t.u.v.w.x.. . . y.z.) A.B.C.. . . D.E.F.z ",
". . z G.B B H.. . . + m.$ . I.R J.K.K.K.K.L.M.,.N.V B.. . . . |.t.O.P.'.q.Q.R.S.D.. . . T.U.V.W.X.Y.Z.F.z ",
". . . `.B  +.+. . . + m.$ ! ++ .@+#+#+#+#+#+$+%+&+V *+. . . . |.t.=+-+;+>+8 R ,+'+)+z !+~+9 {+]+^+/+(+F.z ",
". . _+:+<+[+}+|+. . + m.$ . 1+n 2+3+3+3+3+3+4+5+6+V 7+. . . . |.t.O.. . . , 8+9+0+a+b+c+R d+e+y . ! f+F.z ",
". g+h+ +i+j+B G.k+. + m.$ . U R l+. . . . f.m+&+U n+7+. . . . |.t.o+p+n.. . . . q+'.r+s+t+u+. . . 5+u F.z ",
". v+B w+x+y+z+{.A+. + F.B+) C+[.D+E+. . ) F+h 7+U n+7+. . . . |.n G+q.H+I+. . z J+h K+L+8 p.. . M+N+R F.z ",
"O+P+Q+R+. . S+T+U+V+M+W+X+Y+L Z+d.`+-. @.@R +@+ U n+7+. . . . |.@@#@$@'.%@&@ @*@Z.~+M+=@R -@;@>@,@'@)@i !@",
"~@{@]@. . . z ^@/@(@. c._@g.B.z :@Y.<@$+[@}@5+. |@1@2@. . . . 3@4@5@0.6@^+7@8@9@0@a@. M+b@c@d@e@f@g@h@i@9@"};
