/* XPM */
static char * diamond_logo_xpm[] = {
"88 12 127 2",
"  	c #A0DBDC",
". 	c #94928C",
"+ 	c #B7E1DE",
"@ 	c #07B7CD",
"# 	c #75726E",
"$ 	c #DAEAE2",
"% 	c #C4C2B9",
"& 	c #C9E5E0",
"* 	c #DCDAD0",
"= 	c #9D9A94",
"- 	c #686461",
"; 	c #4D4948",
"> 	c #5C5957",
", 	c #EFEDE2",
"' 	c #23BDCF",
") 	c #716E6A",
"! 	c #BDBBB3",
"~ 	c #5A5654",
"{ 	c #9ADADB",
"] 	c #464241",
"^ 	c #E8E6DC",
"/ 	c #14BACE",
"( 	c #D9D6CD",
"_ 	c #5DCBD5",
": 	c #AAA8A1",
"< 	c #7A7772",
"[ 	c #E6E4DA",
"} 	c #2C2828",
"| 	c #DAD8CE",
"1 	c #7D7A76",
"2 	c #242021",
"3 	c #555250",
"4 	c #1ABBCF",
"5 	c #605D5A",
"6 	c #32C1D1",
"7 	c #7ED3D9",
"8 	c #B8B6AE",
"9 	c #47C6D3",
"0 	c #EAE8DD",
"a 	c #A19E98",
"b 	c #EEEEE4",
"c 	c #292526",
"d 	c #63605D",
"e 	c #ABA9A2",
"f 	c #AEACA5",
"g 	c #66CED6",
"h 	c #494544",
"i 	c #8AD6DA",
"j 	c #353232",
"k 	c #908D88",
"l 	c #AFADA5",
"m 	c #807D79",
"n 	c #D6D4CB",
"o 	c #6C6966",
"p 	c #E0DED4",
"q 	c #D4D1C8",
"r 	c #ACDEDD",
"s 	c #CCCAC1",
"t 	c #D1CFC6",
"u 	c #C8C6BD",
"v 	c #A5A29B",
"w 	c #83D5D9",
"x 	c #E2E0D6",
"y 	c #84817C",
"z 	c #BFBCB4",
"A 	c #3D3938",
"B 	c #51C8D4",
"C 	c #413D3C",
"D 	c #504D4B",
"E 	c #312D2D",
"F 	c #393535",
"G 	c #3CC4D2",
"H 	c #E9EDE3",
"I 	c #BBB8B0",
"J 	c #D3D1C7",
"K 	c #E5ECE3",
"L 	c #E5E3D8",
"M 	c #E0EBE2",
"N 	c #D5E8E1",
"O 	c #B7B5AD",
"P 	c #6E6B68",
"Q 	c #B4B2AA",
"R 	c #8A8782",
"S 	c #999691",
"T 	c #C1BEB6",
"U 	c #65625F",
"V 	c #DEDBD1",
"W 	c #A9A69F",
"X 	c #75D1D8",
"Y 	c #44403F",
"Z 	c #4B4746",
"` 	c #A7A49E",
" .	c #91D8DA",
"..	c #BFE3DF",
"+.	c #5F5B59",
"@.	c #2CBFD0",
"#.	c #CFE7E1",
"$.	c #54504E",
"%.	c #C6E5E0",
"&.	c #B2B0A8",
"*.	c #70D0D7",
"=.	c #272324",
"-.	c #8E8B86",
";.	c #CFCDC4",
">.	c #8B8883",
",.	c #ECEADF",
"'.	c #8D8A85",
").	c #EDEBE0",
"!.	c #83807B",
"~.	c #98958F",
"{.	c #A3A09A",
"].	c #231F20",
"^.	c #A6A39C",
"/.	c #8C8983",
"(.	c #73706C",
"_.	c #83807C",
":.	c #8C8984",
"<.	c #B6B3AC",
"[.	c #CBC8C0",
"}.	c #AEABA4",
"|.	c #878480",
"1.	c #86837E",
"2.	c #CAC8BF",
"3.	c #8F8C87",
"4.	c #777470",
"5.	c #00B5CC",
"6.	c #221E1F",
"b b b b b b b b b b b b b b b b b b b b b b b b b b b b b b b b b b b b b b b b b b b b b b b b b b b b b b b b b b b b b b b b b b b b b b b b b b b b b b b b b b b b b b b b ",
"b b 6.6.6.6.6.6.6.6.6.} b b b 6.6.b b b b 6.6.6.6.6.6.6.].b b b b b 6.6.6.6.6.6.6.6.6.6.6.b b b b b r 5.5.5.5.5.5.5.b b b b < 6.6.6.6.6.6.6.6.b b b k 6.6.6.6.6.6.6.6.6.m b b b ",
"b b 6.6.6.6.6.6.6.6.6.6.} b b 6.6.b b b 6.6.6.6.6.6.6.6.6.6.b b b 6.6.6.6.6.6.6.6.6.6.6.6.6.b b b 5.@.5.5.5.5.5.5.5.5.5.b b 1 6.6.6.6.6.6.6.6.6.b b . 6.6.6.6.6.6.6.6.6.6.m b b ",
"b b 6.n b b b b b b b 6.6.b b 6.6.b b 6.6.- b b b b b b 6.6.b b 6.6.c b b b | 6.~ b b b 6.6.. b 7 b / b b b b b b b 5.b / b 1 6.b b b b b b ~ 6.6.b . 6.b b b b b b b b 6.6.b b ",
"b b 6.n b b b b b b b h 6.b b 6.6.b b 6.6.b b b b b b b j 6.b b 6.6.b b b b | 6.~ b b b b 6.. b 7 5.b b b b b b b b M 5.4 b 1 6.b b b b b b b 6.6.b . 6.b b b b b b b b 6.6.b b ",
"b b 6.n b b b b b b b h 6.b b 6.6.b b 6.6.b b b b b b b j 6.b b 6.6.b b b b | 6.~ b b b b 6.. b 7 5.b b b b b b b b M 5.4 b 1 6.b b b b b b b 6.6.b . 6.b b b b b b b b 6.6.b b ",
"b b 6.n b b b b b b b h 6.b b 6.6.b b 6.6.b b b b b b b j 6.b b 6.6.b b b b | 6.~ b b b b 6.. b 7 5.b b b b b b b b M 5.4 b 1 6.b b b b b b b 6.6.b . 6.b b b b b b b b 6.6.b b ",
"b b 6.n b b b b b b b c 6.b b 6.6.b b 6.6.6.6.6.6.6.6.6.6.6.b b 6.6.b b b b | 6.~ b b b b 6.. b 7 5.b b b b b b b b b 5.4 b 1 6.b b b b b b b 6.6.b . 6.b b b b b b b b 6.6.b b ",
"b b 6.6.6.6.6.6.6.6.6.6.6.b b 6.6.b b 6.6.6.6.6.6.6.6.6.6.6.b b 6.6.b b b b | 6.~ b b b b 6.. b b 5.5.5.5.5.5.5.5.5.5.5.b b 1 6.b b b b b b b 6.6.b . 6.6.6.6.6.6.6.6.6.6.6.b b ",
"b b 6.6.6.6.6.6.6.6.6.6.b b b 6.6.b b 6.6.b b b b b b b j 6.b b 6.6.b b b b | 6.~ b b b b 6.. b b i H 5.5.5.5.5.5.5.b @ b b 1 6.b b b b b b b 6.6.b . 6.6.6.6.6.6.6.6.6.6.b b b ",
"b b b b b b b b b b b b b b b b b b b b b b b b b b b b b b b b b b b b b b b b b b b b b b b b b b b b b b b b b b b b b b b b b b b b b b b b b b b b b b b b b b b b b b b b ",
"b b b b b b b b b b b b b b b b b b b b b b b b b b b b b b b b b b b b b b b b b b b b b b b b b b b b b b b b b b b b b b b b b b b b b b b b b b b b b b b b b b b b b b b b "};
