/* XPM */
static char * tensilica_xpm[] = {
"35 22 266 2",
"  	c None",
". 	c #FFFFFF",
"+ 	c #A6B1CD",
"@ 	c #203983",
"# 	c #18327E",
"$ 	c #51659E",
"% 	c #EFF1F6",
"& 	c #C5CBDE",
"* 	c #294188",
"= 	c #3B5192",
"- 	c #DFE2ED",
"; 	c #DCE0EC",
"> 	c #395090",
", 	c #2B4389",
"' 	c #C7CDE0",
") 	c #EEF0F5",
"! 	c #4F639D",
"~ 	c #213A83",
"{ 	c #AAB4CF",
"] 	c #F9FAFC",
"^ 	c #6C7CAD",
"/ 	c #19337F",
"( 	c #1B3580",
"_ 	c #8A98BE",
": 	c #FDFDFE",
"< 	c #8B98BE",
"[ 	c #6C7DAD",
"} 	c #F7F8FB",
"| 	c #ABB5D0",
"1 	c #203982",
"2 	c #50649E",
"3 	c #E7EAF2",
"4 	c #FAFBFC",
"5 	c #F0F2F7",
"6 	c #EBECF4",
"7 	c #EDEFF5",
"8 	c #FEFEFE",
"9 	c #7080B0",
"0 	c #B8C0D7",
"a 	c #EDEFF4",
"b 	c #7585B2",
"c 	c #6476A9",
"d 	c #6576A9",
"e 	c #6E7FAE",
"f 	c #DCE0EB",
"g 	c #7483B1",
"h 	c #596CA2",
"i 	c #C4CADE",
"j 	c #31488C",
"k 	c #C4CBDE",
"l 	c #4A5E9A",
"m 	c #8D99BF",
"n 	c #B4BCD5",
"o 	c #1A337F",
"p 	c #8A97BE",
"q 	c #F9F9FC",
"r 	c #C6CDDF",
"s 	c #96A1C4",
"t 	c #BCC3D9",
"u 	c #DEE1EC",
"v 	c #C1C8DC",
"w 	c #C3CADE",
"x 	c #99A5C6",
"y 	c #DADEEA",
"z 	c #E3E7EF",
"A 	c #A1ABCA",
"B 	c #9BA7C7",
"C 	c #DDE1EC",
"D 	c #ACB5D1",
"E 	c #CCD1E2",
"F 	c #96A2C5",
"G 	c #3E5393",
"H 	c #E0E3ED",
"I 	c #A2ADCB",
"J 	c #E1E5EF",
"K 	c #F5F6F9",
"L 	c #B5BDD6",
"M 	c #96A2C4",
"N 	c #D1D6E5",
"O 	c #EDEEF5",
"P 	c #A6B0CE",
"Q 	c #94A0C3",
"R 	c #CFD4E4",
"S 	c #5569A0",
"T 	c #1E3781",
"U 	c #7C8AB6",
"V 	c #818FB9",
"W 	c #30488C",
"X 	c #5C6EA4",
"Y 	c #1F3982",
"Z 	c #AEB7D2",
"` 	c #7988B4",
" .	c #263E86",
"..	c #596CA3",
"+.	c #2E468B",
"@.	c #CFD5E5",
"#.	c #3D5293",
"$.	c #6678A9",
"%.	c #445A97",
"&.	c #D0D5E4",
"*.	c #324A8D",
"=.	c #B2BBD4",
"-.	c #6A7BAC",
";.	c #6172A6",
">.	c #B9C1D8",
",.	c #2C448A",
"'.	c #CED3E4",
").	c #5D6FA4",
"!.	c #395091",
"~.	c #495E9A",
"{.	c #273F87",
"].	c #405695",
"^.	c #53669F",
"/.	c #4D629C",
"(.	c #1E3782",
"_.	c #8795BC",
":.	c #445997",
"<.	c #D8DCE9",
"[.	c #7B89B5",
"}.	c #AAB3CF",
"|.	c #32498C",
"1.	c #8794BC",
"2.	c #4C619B",
"3.	c #7484B1",
"4.	c #FBFBFC",
"5.	c #6F80AF",
"6.	c #576AA1",
"7.	c #9FABCA",
"8.	c #223B83",
"9.	c #7282B0",
"0.	c #A0ABCA",
"a.	c #CAD0E1",
"b.	c #BDC4DA",
"c.	c #2F468A",
"d.	c #C6CCDF",
"e.	c #919EC2",
"f.	c #8C9ABF",
"g.	c #425795",
"h.	c #2E468A",
"i.	c #DEE2ED",
"j.	c #E9EBF3",
"k.	c #98A4C5",
"l.	c #D5DAE8",
"m.	c #96A3C4",
"n.	c #A4AECC",
"o.	c #6172A7",
"p.	c #2B4489",
"q.	c #576AA2",
"r.	c #7181B0",
"s.	c #A3AECB",
"t.	c #8290B9",
"u.	c #8694BC",
"v.	c #B3BCD4",
"w.	c #2D448A",
"x.	c #B0B9D3",
"y.	c #4C609B",
"z.	c #818FB8",
"A.	c #E4E7F0",
"B.	c #4E629C",
"C.	c #1E3882",
"D.	c #929FC2",
"E.	c #415795",
"F.	c #CAD0E2",
"G.	c #2F478B",
"H.	c #6072A6",
"I.	c #6B7BAC",
"J.	c #6D7DAD",
"K.	c #5568A0",
"L.	c #E7E9F1",
"M.	c #8F9CC1",
"N.	c #354C8E",
"O.	c #8896BD",
"P.	c #5E6FA5",
"Q.	c #253D85",
"R.	c #6D7EAD",
"S.	c #A3ADCB",
"T.	c #213B83",
"U.	c #A0ABC9",
"V.	c #7F8DB8",
"W.	c #6273A8",
"X.	c #B4BDD5",
"Y.	c #2A4288",
"Z.	c #D6DBE8",
"`.	c #E2E5EF",
" +	c #A1ABCB",
".+	c #465B97",
"++	c #7382B0",
"@+	c #6173A7",
"#+	c #6678AA",
"$+	c #B5BED6",
"%+	c #3F5594",
"&+	c #98A4C6",
"*+	c #7181AF",
"=+	c #A0AACA",
"-+	c #3F5494",
";+	c #7887B4",
">+	c #3B5191",
",+	c #7081AF",
"'+	c #AFB8D3",
")+	c #284087",
"!+	c #8D9ABF",
"~+	c #7D8BB6",
"{+	c #ECEEF4",
"]+	c #8694BB",
"^+	c #51669D",
"/+	c #7383B1",
"(+	c #8391BA",
"_+	c #F3F4F8",
":+	c #7A89B5",
"<+	c #E1E4EE",
"[+	c #B3BCD5",
"}+	c #5D70A4",
"|+	c #576BA1",
"1+	c #99A4C6",
"2+	c #8A96BE",
"3+	c #B9C0D8",
"4+	c #BBC3D9",
"5+	c #8895BD",
"6+	c #7B8AB6",
"7+	c #D7DCE9",
"8+	c #6879AB",
"9+	c #576AA0",
"0+	c #9BA6C7",
"a+	c #96A1C5",
"b+	c #93A0C3",
"c+	c #DFECE7",
"d+	c #6CAF91",
"e+	c #5EA987",
"f+	c #5FAA88",
"g+	c #5EAA88",
"h+	c #5EAA87",
"i+	c #71B295",
"j+	c #E8F0EF",
"k+	c #EFF7F3",
"l+	c #469D74",
"m+	c #007942",
"n+	c #097E48",
"o+	c #9CCAB4",
"p+	c #FEFFFF",
"q+	c #F9FCFA",
"r+	c #67AC8D",
"s+	c #027A43",
"t+	c #047A45",
"u+	c #79B69A",
"v+	c #FCFDFC",
"w+	c #8BBFA8",
"x+	c #077B47",
"y+	c #017942",
"z+	c #57A580",
"A+	c #F4F9F7",
"B+	c #ADD1C2",
"C+	c #0E7F4B",
"D+	c #39966A",
"E+	c #E7F3ED",
"F+	c #C9E2D6",
"G+	c #1A8654",
"H+	c #22885A",
"I+	c #D5E6E1",
"J+	c #E3F0EA",
"K+	c #2E9063",
"L+	c #12824E",
"M+	c #B9DACA",
"N+	c #F4F8F7",
"O+	c #499B78",
"P+	c #087D47",
"Q+	c #96C7B0",
". . . . . . . . . . . . + @ # # # # # # # # # $ % . . . . . . . . . . ",
". . . . . . . . . . . & * # # # # # # # # # = - . . . . . . . . . . . ",
". . . . . . . . . . ; > # # # # # # # # # , ' . . . . . . . . . . . . ",
". . . . . . . . . ) ! # # # # # # # # # ~ { . . . . . . . . . . . . . ",
". . . . . . . . ] ^ / # # # # # # # # ( _ : . . . . . . . . . . . . . ",
". . . . . . . : < ( # # # # # # # # # [ } . . . . . . . . . . . . . . ",
". . . . . . . | 1 # # # # # # # # # 2 - 3 4 5 4 6 7 . . . . . . . . . ",
"8 9 0 . . . a b c d c d c c c d c e f g h i j k l m . . . . . . . . . ",
"n o p q r s t 4 u v w x y . z A B C q D E F G H I J K L M N . O P Q R ",
"S T U V W X Y Z `  ...+.! @.#.$.l %.&.*.=.-.;.>.,.'.).!.~.{.R ].^./.(.",
"_.:.<.1 [.}.|.1.2.3.4.5.6.7.8.9.0.a.b.c.d.:.e.f.g.A h.i.j.k.l.m.n.o.p.",
"q.r.s. .t.u.1.v.w.x.] y.z.A._ B.C.9.D.E.F.G.L H.I.J.K.: L.<.M.N.O.y.P.",
"Q.R.S.T.U.V.W.X.Y.Z.`.W  +.+++L !.< @+#+$+W a.%+&+*+N.=+-+;+>+,+'+)+!+",
"~+$.{+]+^+/+; w (+_+C :+<+[+}+|+1+{+2+3+4+5+i.6+7+; 8+9+0+K a+S b+` 3+",
". . . . . . . . . . . . c+d+e+f+g+e+f+h+e+h+g+i+j+. . . . . . . . . . ",
". . . . . . . . . . . k+l+m+m+m+m+m+m+m+m+m+n+o+p+. . . . . . . . . . ",
". . . . . . . . . . q+r+s+m+m+m+m+m+m+m+m+t+u+v+. . . . . . . . . . . ",
". . . . . . . . . 8 w+x+m+m+m+m+m+m+m+m+y+z+A+. . . . . . . . . . . . ",
". . . . . . . . . B+C+m+m+m+m+m+m+m+m+m+D+E+. . . . . . . . . . . . . ",
". . . . . . . . F+G+m+m+m+m+m+m+m+m+m+H+I+. . . . . . . . . . . . . . ",
". . . . . . . J+K+m+m+m+m+m+m+m+m+m+L+M+. . . . . . . . . . . . . . . ",
". . . . . . N+O+m+m+m+m+m+m+m+m+m+P+Q+. . . . . . . . . . . . . . . . "};
